<?xml version="1.0" encoding="UTF-8" standalone="no"?>
<!DOCTYPE svg PUBLIC "-//W3C//DTD SVG 1.1//EN" "http://www.w3.org/Graphics/SVG/1.1/DTD/svg11.dtd">
<svg version="1.1" xmlns="http://www.w3.org/2000/svg" xmlns:xlink="http://www.w3.org/1999/xlink" preserveAspectRatio="xMidYMid meet" viewBox="0 0 640 640" width="640" height="640"><defs><path d="M335.36 451.5C337.56 451.5 339.33 453.28 339.33 455.47C339.33 456.26 339.33 454.67 339.33 455.47C339.33 457.66 337.56 459.44 335.36 459.44C304.9 459.44 217.5 459.44 187.05 459.44C184.85 459.44 183.07 457.66 183.07 455.47C183.07 454.67 183.07 456.26 183.07 455.47C183.07 453.28 184.85 451.5 187.05 451.5C217.5 451.5 304.9 451.5 335.36 451.5Z" id="a8skDBvck"></path><path d="M520.65 250C523.41 250 525.65 252.24 525.65 255C525.65 256 525.65 254 525.65 255C525.65 257.76 523.41 260 520.65 260C496.94 260 430.81 260 407.1 260C404.34 260 402.1 257.76 402.1 255C402.1 254 402.1 256 402.1 255C402.1 252.24 404.34 250 407.1 250C430.81 250 496.94 250 520.65 250Z" id="c2LobecaY"></path><path d="M367.67 250.61C370.23 250.61 372.31 252.69 372.31 255.24C372.31 256.17 372.31 254.32 372.31 255.24C372.31 257.8 370.23 259.88 367.67 259.88C316.69 259.88 168.37 259.88 117.39 259.88C114.83 259.88 112.76 257.8 112.76 255.24C112.76 254.32 112.76 256.17 112.76 255.24C112.76 252.69 114.83 250.61 117.39 250.61C168.37 250.61 316.69 250.61 367.67 250.61Z" id="e2NPMSARhP"></path><path d="M271.67 192.21C274.23 192.21 276.3 194.29 276.3 196.85C276.3 197.77 276.3 195.92 276.3 196.85C276.3 199.41 274.23 201.48 271.67 201.48C252.73 201.48 200.55 201.48 181.62 201.48C179.06 201.48 176.98 199.41 176.98 196.85C176.98 195.92 176.98 197.77 176.98 196.85C176.98 194.29 179.06 192.21 181.62 192.21C200.55 192.21 252.73 192.21 271.67 192.21Z" id="a1J8IOHKTv"></path><path d="M539.82 143.88C547.14 143.88 553.07 149.81 553.07 157.12C553.07 224.92 553.07 415.08 553.07 482.88C553.07 490.19 547.14 496.12 539.82 496.12C449.24 496.12 190.76 496.12 100.18 496.12C92.86 496.12 86.93 490.19 86.93 482.88C86.93 415.08 86.93 224.92 86.93 157.12C86.93 149.81 92.86 143.88 100.18 143.88C190.76 143.88 449.24 143.88 539.82 143.88Z" id="e463hYvWF"></path><path d="M158.44 196.85C158.44 210 147.47 220.68 133.94 220.68C120.42 220.68 109.45 210 109.45 196.85C109.45 183.69 120.42 173.01 133.94 173.01C147.47 173.01 158.44 183.69 158.44 196.85Z" id="a77DAVje7e"></path><path d="M149.7 433.36C155.92 433.36 160.96 438.75 160.96 445.4C160.96 463.83 138.45 472.97 138.45 473.48C138.45 473.48 138.45 473.48 138.45 473.48C138.45 472.97 115.94 463.83 115.94 445.4C115.94 438.75 120.97 433.35 127.19 433.35C133.41 433.35 138.45 438.08 138.45 444.73C138.45 438.08 143.49 433.36 149.7 433.36Z" id="a84opPrE4f"></path><path d="M519.96 294.84L119.78 294.84" id="b1QrflLUx5"></path><path d="M519.96 313.51L119.78 313.51" id="a1f4mj60ko"></path><path d="M519.96 330.86L119.78 330.86" id="cCNAkhwQa"></path><path d="M519.96 346.88L119.78 346.88" id="a4efRGWCf"></path></defs><g><g><g><use xlink:href="#a8skDBvck" opacity="1" fill="#ffffff" fill-opacity="1"></use><g><use xlink:href="#a8skDBvck" opacity="1" fill-opacity="0" stroke="#ffffff" stroke-width="5" stroke-opacity="1"></use></g></g><g><use xlink:href="#c2LobecaY" opacity="1" fill="#ffffff" fill-opacity="1"></use><g><use xlink:href="#c2LobecaY" opacity="1" fill-opacity="0" stroke="#ffffff" stroke-width="5" stroke-opacity="1"></use></g></g><g><use xlink:href="#e2NPMSARhP" opacity="1" fill="#ffffff" fill-opacity="1"></use><g><use xlink:href="#e2NPMSARhP" opacity="1" fill-opacity="0" stroke="#ffffff" stroke-width="5" stroke-opacity="1"></use></g></g><g><use xlink:href="#a1J8IOHKTv" opacity="1" fill="#ffffff" fill-opacity="1"></use><g><use xlink:href="#a1J8IOHKTv" opacity="1" fill-opacity="0" stroke="#ffffff" stroke-width="5" stroke-opacity="1"></use></g></g><g><g><use xlink:href="#e463hYvWF" opacity="1" fill-opacity="0" stroke="#ffffff" stroke-width="10" stroke-opacity="1"></use></g></g><g><use xlink:href="#a77DAVje7e" opacity="1" fill="#ffffff" fill-opacity="1"></use></g><g><use xlink:href="#a84opPrE4f" opacity="1" fill="#ffffff" fill-opacity="1"></use></g><g><g><use xlink:href="#b1QrflLUx5" opacity="1" fill-opacity="0" stroke="#ffffff" stroke-width="2" stroke-opacity="1"></use></g></g><g><g><use xlink:href="#a1f4mj60ko" opacity="1" fill-opacity="0" stroke="#ffffff" stroke-width="2" stroke-opacity="1"></use></g></g><g><g><use xlink:href="#cCNAkhwQa" opacity="1" fill-opacity="0" stroke="#ffffff" stroke-width="2" stroke-opacity="1"></use></g></g><g><g><use xlink:href="#a4efRGWCf" opacity="1" fill-opacity="0" stroke="#ffffff" stroke-width="2" stroke-opacity="1"></use></g></g></g></g></svg>